<svg width="16" height="15" viewBox="0 0 16 15" fill="none" xmlns="http://www.w3.org/2000/svg">
<path d="M10.5786 13.8775C10.614 14.1135 10.5254 14.3652 10.3215 14.5304C10.2394 14.6033 10.142 14.6612 10.0348 14.7006C9.9275 14.7401 9.81252 14.7604 9.69641 14.7604C9.58029 14.7604 9.46531 14.7401 9.35806 14.7006C9.2508 14.6612 9.15338 14.6033 9.07135 14.5304L5.5161 11.3762C5.4194 11.2923 5.34588 11.1898 5.30127 11.0765C5.25667 10.9632 5.2422 10.8424 5.25898 10.7233V6.69601L1.01218 1.87424C0.868204 1.71026 0.803239 1.50239 0.83148 1.29605C0.859722 1.08971 0.978875 0.901668 1.1629 0.773024C1.33136 0.662902 1.51754 0.599976 1.71259 0.599976H14.125C14.32 0.599976 14.5062 0.662902 14.6747 0.773024C14.8587 0.901668 14.9778 1.08971 15.0061 1.29605C15.0343 1.50239 14.9694 1.71026 14.8254 1.87424L10.5786 6.69601V13.8775ZM3.52125 2.17315L7.03218 6.15327V10.4952L8.80538 12.0684V6.1454L12.3163 2.17315H3.52125Z" fill="#2B2B2B"/>
</svg>
