<svg width="16" height="16" viewBox="0 0 16 16" fill="none" xmlns="http://www.w3.org/2000/svg">
<path d="M7.04634 11.9965C7.66456 11.9965 8.27672 11.8731 8.84787 11.6334C9.41903 11.3936 9.93799 11.0422 10.3751 10.5993C10.8123 10.1563 11.159 9.63042 11.3956 9.05166C11.6322 8.47289 11.754 7.85257 11.754 7.22612C11.754 6.59967 11.6322 5.97935 11.3956 5.40058C11.159 4.82181 10.8123 4.29593 10.3751 3.85296C9.93799 3.40999 9.41903 3.05861 8.84787 2.81888C8.27672 2.57914 7.66456 2.45576 7.04634 2.45576C5.7978 2.45576 4.60039 2.95835 3.71754 3.85296C2.83469 4.74758 2.33871 5.96094 2.33871 7.22612C2.33871 8.4913 2.83469 9.70466 3.71754 10.5993C4.60039 11.4939 5.7978 11.9965 7.04634 11.9965ZM12.005 11.1267L14.8139 13.973C14.8888 14.0464 14.9485 14.1342 14.9896 14.2312C15.0306 14.3282 15.0522 14.4326 15.053 14.5381C15.0539 14.6437 15.0339 14.7484 14.9944 14.8461C14.9549 14.9437 14.8966 15.0325 14.8229 15.1071C14.7491 15.1817 14.6615 15.2406 14.565 15.2805C14.4686 15.3205 14.3653 15.3405 14.2611 15.3395C14.1569 15.3385 14.054 15.3165 13.9583 15.2748C13.8626 15.233 13.776 15.1724 13.7037 15.0964L10.8948 12.2501C9.63355 13.2422 8.04655 13.71 6.45691 13.5581C4.86727 13.4063 3.39448 12.6463 2.33836 11.4328C1.28224 10.2194 0.722175 8.64367 0.772187 7.0265C0.822198 5.40933 1.47852 3.87225 2.60755 2.72818C3.73658 1.58411 5.25344 0.919036 6.84935 0.868358C8.44525 0.81768 10.0002 1.3852 11.1977 2.4554C12.3952 3.52559 13.1453 5.01801 13.2951 6.62883C13.4449 8.23966 12.9833 9.8478 12.0043 11.1259L12.005 11.1267Z" fill="#A5A5A5"/>
</svg>
